<?xml version="1.0" encoding="UTF-8" standalone="no"?>
<svg width="170px" height="38px" viewBox="0 0 170 38" version="1.1" xmlns="http://www.w3.org/2000/svg" xmlns:xlink="http://www.w3.org/1999/xlink">
    <!-- Generator: Sketch 42 (36781) - http://www.bohemiancoding.com/sketch -->
    <title>logo-pyt@1x</title>
    <desc>Created with Sketch.</desc>
    <defs>
        <polygon id="path-1" points="2.71570827 0.224338008 2.71570827 18.6475217 0.11997756 18.6475217 0.11997756 0.224338008 2.71570827 0.224338008"></polygon>
        <polygon id="path-3" points="0 0.0482103787 0 37.1949509 37.1459299 37.1949509 37.1459299 0.0482103787 1.29252713e-20 0.0482103787"></polygon>
    </defs>
    <g id="Wizard" stroke="none" stroke-width="1" fill="none" fill-rule="evenodd">
        <g id="Wizard-interests-b4cities" transform="translate(-230.000000, -9.000000)">
            <g id="logo-pyt" transform="translate(230.000000, 9.000000)">
                <path d="M44.6513226,21.3529537 C44.8530337,21.8000084 45.1217433,22.1729116 45.4579285,22.4752398 C45.7936367,22.777568 46.1760771,23.0055063 46.6042959,23.1566704 C47.0322763,23.3075961 47.474324,23.3827013 47.9273394,23.3827013 C48.4144502,23.3827013 48.8722342,23.2994895 49.3011683,23.1311585 C49.7291487,22.9628275 50.1030056,22.7241599 50.4225007,22.4132482 C50.7419958,22.102575 50.9940154,21.7239495 51.178798,21.2785638 C51.3635806,20.8334165 51.4558527,20.342014 51.4558527,19.8045947 C51.4558527,19.2502468 51.3635806,18.7500224 51.178798,18.3051136 C50.9940154,17.8594895 50.7419958,17.4732342 50.4225007,17.1456325 C50.1030056,16.8177924 49.7291487,16.5660112 49.3011683,16.3890968 C48.8722342,16.2126592 48.4144502,16.1244404 47.9273394,16.1244404 C47.4407055,16.1244404 46.9819677,16.2086059 46.5539874,16.3766985 C46.1257686,16.5450295 45.7476199,16.7884656 45.4202567,17.1079607 C45.0924165,17.4274558 44.8325288,17.8129958 44.6391627,18.2674418 C44.4455582,18.7211725 44.3482791,19.2328415 44.3482791,19.8045947 C44.3482791,20.392561 44.4500884,20.909237 44.6513226,21.3529537 M45.9617293,14.1213969 C46.6839313,13.7768668 47.4485736,13.6044825 48.2551795,13.6044825 C49.0450954,13.6044825 49.7966241,13.7513548 50.5109579,14.0458149 C51.2252917,14.3395596 51.8466381,14.7553801 52.3754741,15.2932763 C52.9050252,15.8306957 53.3246606,16.477554 53.6362875,17.2338513 C53.9467223,17.9899102 54.1019397,18.8296578 54.1019397,19.7540477 C54.1019397,20.6946508 53.9467223,21.5427433 53.6362875,22.2985638 C53.3246606,23.0546227 52.9050252,23.6979046 52.3754741,24.2276942 C51.8466381,24.7558149 51.2252917,25.1644825 50.5109579,25.4501206 C49.7966241,25.7352819 49.0450954,25.878101 48.2551795,25.878101 C47.4485736,25.878101 46.6839313,25.718115 45.9617293,25.3988583 C45.2395273,25.0791248 44.6928093,24.5917756 44.3234825,23.9377644 L44.3234825,30.1621964 C44.3234825,30.51531 44.1973534,30.8224067 43.9458107,31.0820561 C43.6933142,31.3440898 43.3745344,31.4737952 42.9878022,31.4737952 C42.6349271,31.4737952 42.3368906,31.3440898 42.093216,31.0820561 C41.8497798,30.8224067 41.7272272,30.51531 41.7272272,30.1621964 L41.7272272,15.0412567 C41.7272272,14.6883815 41.8497798,14.3817616 42.093216,14.1213969 C42.3368906,13.8605554 42.6349271,13.7306115 42.9878022,13.7306115 C43.3745344,13.7306115 43.6933142,13.8605554 43.9458107,14.1213969 C44.1973534,14.3817616 44.3234825,14.6883815 44.3234825,15.0412567 L44.3234825,15.5953661 C44.6928093,14.9570912 45.2395273,14.4659271 45.9617293,14.1213969" id="Fill-1" fill="#8952B6"></path>
                <path d="M58.2655568,25.3607335 C58.014014,25.6222903 57.6938036,25.7522342 57.3080252,25.7522342 C56.9546732,25.7522342 56.6571136,25.6222903 56.4129621,25.3607335 C56.1700028,25.1006073 56.0474502,24.7942258 56.0474502,24.4406353 L56.0474502,15.0412805 C56.0474502,14.6884053 56.1700028,14.3817854 56.4129621,14.1214208 C56.6571136,13.8605792 56.9546732,13.7306353 57.3080252,13.7306353 C57.6938036,13.7306353 58.014014,13.8605792 58.2655568,14.1214208 C58.5170996,14.3817854 58.6432286,14.6884053 58.6432286,15.0412805 L58.6432286,24.4406353 C58.6432286,24.7942258 58.5170996,25.1006073 58.2655568,25.3607335 M56.1103955,7.92130856 C56.4544488,7.61039691 56.862878,7.45494109 57.3328219,7.45494109 C57.8208864,7.45494109 58.227885,7.61039691 58.5552482,7.92130856 C58.8835652,8.2322202 59.0473661,8.62276718 59.0473661,9.09294951 C59.0473661,9.5636087 58.8835652,9.95439411 58.5552482,10.2650673 C58.227885,10.5762174 57.8208864,10.7314348 57.3328219,10.7314348 C56.862878,10.7314348 56.4544488,10.5762174 56.1103955,10.2650673 C55.7658654,9.95439411 55.5944348,9.5636087 55.5944348,9.09294951 C55.5944348,8.62276718 55.7658654,8.2322202 56.1103955,7.92130856" id="Fill-3" fill="#8952B6"></path>
                <path d="M61.0289032,17.2210715 C61.3646115,16.4566676 61.8183422,15.8100477 62.3896185,15.2802581 C62.9606564,14.7511837 63.6287349,14.339655 64.3929004,14.0456718 C65.1570659,13.7514502 65.9600954,13.6045778 66.7996045,13.6045778 C68.1779635,13.6045778 69.3786928,13.9660365 70.4044151,14.6882384 C70.6900533,14.873021 70.8581459,15.129094 70.9079776,15.4569341 C70.9590014,15.7842973 70.8910491,16.1083226 70.7062665,16.4278177 C70.5214839,16.712979 70.2484825,16.8727265 69.8879776,16.9061066 C69.5262805,16.9394867 69.2020168,16.8727265 68.9166171,16.7043955 C68.6142889,16.5196129 68.2823955,16.3767938 67.9214137,16.2756999 C67.5606704,16.1753212 67.186575,16.1245358 66.7996045,16.1245358 C66.3124937,16.1245358 65.8420729,16.2127546 65.3885806,16.3891921 C64.9350884,16.5658682 64.5407265,16.8100196 64.2038261,17.120216 C63.8681178,17.4306508 63.5994081,17.8095147 63.3979355,18.254662 C63.1962244,18.6995708 63.0956073,19.1993184 63.0956073,19.7541431 C63.0956073,20.3082525 63.1962244,20.8044236 63.3979355,21.2405105 C63.5994081,21.6768359 63.8681178,22.0559383 64.2038261,22.3754334 C64.5407265,22.69469 64.9350884,22.9374109 65.3885806,23.1057419 C65.8420729,23.2738345 66.3124937,23.3589537 66.7996045,23.3589537 C67.186575,23.3589537 67.5606704,23.3076914 67.9214137,23.2077896 C68.2823955,23.1057419 68.6142889,22.9629229 68.9166171,22.7776634 C69.2020168,22.6093324 69.5262805,22.5435259 69.8879776,22.5773829 C70.2484825,22.6093324 70.5214839,22.7693184 70.7062665,23.0544797 C70.8910491,23.3739748 70.9590014,23.698 70.9079776,24.0256017 C70.8581459,24.3534418 70.6900533,24.6087994 70.4044151,24.7942973 C69.3786928,25.5162609 68.1779635,25.8779579 66.7996045,25.8779579 C65.9600954,25.8779579 65.1570659,25.7351388 64.3929004,25.4499776 C63.6287349,25.1643394 62.9606564,24.7516185 62.3896185,24.2149144 C61.8183422,23.6763029 61.3646115,23.0351669 61.0289032,22.285784 C60.6927181,21.5383086 60.5246255,20.6947461 60.5246255,19.7541431 C60.5246255,18.8297532 60.6927181,17.9854755 61.0289032,17.2210715" id="Fill-5" fill="#8952B6"></path>
                <path d="M82.3045105,24.5682426 C82.2956886,24.9025203 82.1740898,25.1900659 81.9394755,25.4246802 C81.6698121,25.6609635 81.3629537,25.7696872 81.0191388,25.7520435 C80.6746087,25.7353534 80.3932623,25.6099397 80.1748612,25.3731795 L75.4115231,20.1570645 L75.4115231,24.4404446 C75.4115231,24.7942735 75.2853941,25.100655 75.0333745,25.3607812 C74.780878,25.622338 74.4618597,25.7520435 74.0748892,25.7520435 C73.7229677,25.7520435 73.4249313,25.622338 73.1807798,25.3607812 C72.9373436,25.100655 72.8157447,24.7942735 72.8157447,24.4404446 L72.8157447,8.63950491 C72.8157447,8.28710659 72.9373436,7.97977139 73.1807798,7.71964516 C73.4249313,7.45904208 73.7229677,7.32885975 74.0748892,7.32885975 C74.4618597,7.32885975 74.780878,7.45904208 75.0333745,7.71964516 C75.2853941,7.97977139 75.4115231,8.28710659 75.4115231,8.63950491 L75.4115231,17.7126886 L78.9142861,14.0835582 C79.1667826,13.848467 79.4643422,13.7304446 79.8093492,13.7304446 C80.153641,13.7304446 80.443094,13.848467 80.6784236,14.0835582 C80.9139916,14.3525063 81.0234306,14.6627027 81.0067405,15.0158163 C80.9893352,15.368453 80.863683,15.6624362 80.6285919,15.8977658 L77.6034025,18.97231 L81.9645105,23.685101 C82.1998401,23.9378359 82.3123787,24.2315806 82.3045105,24.5682426" id="Fill-7" fill="#8952B6"></path>
                <path d="M86.4472174,31.3223927 C86.1453661,31.4737952 85.8263478,31.5059832 85.489209,31.4230098 C85.1530238,31.3400365 84.9021964,31.1287882 84.7336269,30.7926031 C84.5657728,30.4559411 84.5486059,30.119756 84.6837952,29.7852398 L86.5990968,25.0710182 L82.5913408,15.4194053 C82.4578205,15.0996718 82.4730799,14.7682553 82.6416494,14.4237251 C82.8097419,14.079195 83.0622384,13.8648471 83.3979467,13.7809201 C83.7341318,13.6974698 84.0536269,13.7306115 84.3559551,13.882014 C84.6580449,14.0331781 84.876446,14.2768527 85.0111585,14.6127994 L87.985324,21.9218457 L90.984763,14.6127994 C91.1185217,14.2768527 91.3369229,14.0331781 91.6390126,13.882014 C91.9418177,13.7306115 92.2613128,13.6974698 92.597021,13.7809201 C92.9327293,13.8648471 93.1847489,14.079195 93.3533184,14.4237251 C93.5214109,14.7682553 93.5376241,15.0996718 93.4036269,15.4194053 L87.1024208,30.5899383 C86.9689004,30.9266003 86.7502609,31.1717055 86.4472174,31.3223927" id="Fill-9" fill="#223C44"></path>
                <path d="M101.575358,23.0928668 C102.01216,22.9161907 102.394123,22.6732314 102.72244,22.3625582 C103.049804,22.0516466 103.310884,21.6682525 103.503773,21.2147602 C103.696185,20.76246 103.793464,20.2581823 103.793464,19.7035961 C103.793464,19.1659383 103.696185,18.6742973 103.503773,18.2293885 C103.310884,17.7837644 103.049804,17.4058541 102.72244,17.0949425 C102.394123,16.7842693 102.01216,16.544648 101.575358,16.3767938 C101.139509,16.2087013 100.676957,16.1245358 100.189846,16.1245358 C99.7027349,16.1245358 99.2442356,16.2087013 98.8157784,16.3767938 C98.3882749,16.544648 98.0106031,16.7842693 97.6822861,17.0949425 C97.354446,17.4058541 97.0978962,17.7837644 96.913352,18.2293885 C96.7285694,18.6742973 96.6358205,19.1659383 96.6358205,19.7035961 C96.6358205,20.2581823 96.7285694,20.76246 96.913352,21.2147602 C97.0978962,21.6682525 97.354446,22.0516466 97.6822861,22.3625582 C98.0106031,22.6732314 98.3882749,22.9161907 98.8157784,23.0928668 C99.2442356,23.2695428 99.7027349,23.3589537 100.189846,23.3589537 C100.676957,23.3589537 101.139509,23.2695428 101.575358,23.0928668 M97.8200982,25.4373408 C97.0814446,25.1435961 96.4345863,24.728014 95.8795231,24.1894025 C95.32446,23.6529369 94.8840813,23.0056017 94.5562412,22.2497812 C94.2291164,21.4939607 94.0653156,20.6441992 94.0653156,19.7035961 C94.0653156,18.7794446 94.2291164,17.9394586 94.5562412,17.1833997 C94.8840813,16.4278177 95.32446,15.7842973 95.8795231,15.255223 C96.4345863,14.7259102 97.0814446,14.3184348 97.8200982,14.0330351 C98.5597055,13.7471585 99.3493829,13.6045778 100.189846,13.6045778 C101.029593,13.6045778 101.824039,13.7471585 102.570561,14.0330351 C103.318513,14.3184348 103.97467,14.7259102 104.537602,15.255223 C105.099579,15.7842973 105.544727,16.4278177 105.87209,17.1833997 C106.200407,17.9394586 106.364446,18.7794446 106.364446,19.7035961 C106.364446,20.6441992 106.200407,21.4939607 105.87209,22.2497812 C105.544727,23.0056017 105.099579,23.6529369 104.537602,24.1894025 C103.97467,24.728014 103.318513,25.1435961 102.570561,25.4373408 C101.824039,25.7310856 101.029593,25.8779579 100.189846,25.8779579 C99.3493829,25.8779579 98.5597055,25.7310856 97.8200982,25.4373408" id="Fill-11" fill="#223C44"></path>
                <path d="M118.52946,25.3607335 C118.277917,25.6222903 117.958422,25.7522342 117.571928,25.7522342 C117.220007,25.7522342 116.92054,25.6222903 116.677819,25.3607335 C116.433906,25.1006073 116.31183,24.7942258 116.31183,24.4406353 L116.31183,23.8619677 C116.144215,24.1979144 115.920806,24.492136 115.64399,24.743202 C115.367412,24.9961753 115.065323,25.2050393 114.737006,25.3733703 C114.409642,25.5412244 114.069165,25.6673534 113.71629,25.7522342 C113.363654,25.835446 113.026992,25.8778864 112.707973,25.8778864 C111.280259,25.8778864 110.174663,25.4372693 109.393808,24.5555582 C108.613191,23.6719397 108.222405,22.3922903 108.222405,20.7118415 L108.222405,15.0412805 C108.222405,14.6884053 108.347819,14.3817854 108.600077,14.1214208 C108.85162,13.8605792 109.170638,13.7306353 109.557609,13.7306353 C109.911199,13.7306353 110.208759,13.8605792 110.453149,14.1214208 C110.695393,14.3817854 110.818184,14.6884053 110.818184,15.0412805 L110.818184,20.4092749 C110.818184,21.3486858 111.0404,22.0730337 111.485547,22.5773114 C111.930694,23.0803969 112.532489,23.3333703 113.28831,23.3333703 C113.674327,23.3333703 114.048184,23.2780547 114.409642,23.1695694 C114.769909,23.0589383 115.093696,22.879878 115.379095,22.6264278 C115.665449,22.3753619 115.892195,22.051575 116.060526,21.6555442 C116.227665,21.2616592 116.31183,20.7704951 116.31183,20.1827672 L116.31183,15.0412805 C116.31183,14.6884053 116.438436,14.3817854 116.689502,14.1214208 C116.942475,13.8605792 117.261494,13.7306353 117.647987,13.7306353 C118.000386,13.7306353 118.297945,13.8605792 118.542097,14.1214208 C118.785533,14.3817854 118.908562,14.6884053 118.908562,15.0412805 L118.908562,24.4406353 C118.908562,24.7942258 118.781957,25.1006073 118.52946,25.3607335" id="Fill-13" fill="#223C44"></path>
                <path d="M125.868143,16.4398822 C125.472827,16.7000084 125.145464,17.0698121 124.885576,17.5485778 C124.624735,18.027582 124.436614,18.5945666 124.318353,19.2502468 C124.201046,19.9052118 124.141916,20.6190687 124.141916,21.3918177 L124.141916,24.4406115 C124.141916,24.794202 124.01531,25.1005835 123.76329,25.3607097 C123.511748,25.6222665 123.192729,25.7522104 122.806236,25.7522104 C122.453837,25.7522104 122.154847,25.6222665 121.912126,25.3607097 C121.668213,25.1005835 121.545184,24.794202 121.545184,24.4406115 L121.545184,15.0412567 C121.545184,14.6883815 121.668213,14.3817616 121.912126,14.1213969 C122.154847,13.8605554 122.453837,13.7306115 122.806236,13.7306115 C123.192729,13.7306115 123.511748,13.8605554 123.76329,14.1213969 C124.01531,14.3817616 124.141916,14.6883815 124.141916,15.0412567 L124.141916,16.553136 C124.444482,15.4947489 124.872463,14.7389285 125.427526,14.2847209 C125.982351,13.8312286 126.628255,13.6044825 127.368101,13.6044825 C127.787736,13.6044825 128.157063,13.638101 128.476797,13.7050996 C128.812743,13.7892651 129.07287,13.9740477 129.257891,14.2596858 C129.44315,14.5455624 129.493459,14.8562356 129.409293,15.1924208 C129.358985,15.4778205 129.254076,15.6838233 129.093851,15.8099523 C128.933627,15.9358429 128.754328,16.0152398 128.551902,16.0488583 C128.351144,16.0824769 128.137035,16.0910603 127.91005,16.0743703 C127.682351,16.0574418 127.47754,16.0488583 127.292757,16.0488583 C126.737456,16.0488583 126.263459,16.1795175 125.868143,16.4398822" id="Fill-15" fill="#223C44"></path>
                <path d="M131.098683,15.9988836 C130.81376,15.9988836 130.561741,15.8977896 130.342863,15.6967938 C130.124461,15.4948443 130.014546,15.2509313 130.014546,14.96577 C130.014546,14.6465133 130.124461,14.3816185 130.342863,14.171324 C130.561741,13.9617447 130.81376,13.8561206 131.098683,13.8561206 L132.258641,13.8561206 L132.258641,10.5803422 C132.258641,10.2272286 132.380717,9.9206087 132.623438,9.66048247 C132.867351,9.40011781 133.165387,9.26969705 133.518739,9.26969705 C133.905233,9.26969705 134.224728,9.40011781 134.476271,9.66048247 C134.728767,9.9206087 134.854419,10.2272286 134.854419,10.5803422 L134.854419,13.8561206 L136.391095,13.8561206 C136.677449,13.8561206 136.928515,13.9617447 137.14787,14.171324 C137.366271,14.3816185 137.47571,14.6465133 137.47571,14.96577 C137.47571,15.2509313 137.366271,15.4948443 137.14787,15.6967938 C136.928515,15.8977896 136.677449,15.9988836 136.391095,15.9988836 L134.854419,15.9988836 L134.854419,24.4404684 C134.854419,24.7942973 134.728767,25.1006788 134.476271,25.360805 C134.224728,25.6223619 133.905233,25.7520673 133.518739,25.7520673 C133.165387,25.7520673 132.867351,25.6223619 132.623438,25.360805 C132.380717,25.1006788 132.258641,24.7942973 132.258641,24.4404684 L132.258641,15.9988836 L131.098683,15.9988836 Z" id="Fill-17" fill="#223C44"></path>
                <path d="M143.06995,16.4398822 C142.675111,16.7000084 142.346794,17.0698121 142.087383,17.5485778 C141.826541,18.027582 141.637944,18.5945666 141.519683,19.2502468 C141.402853,19.9052118 141.344199,20.6190687 141.344199,21.3918177 L141.344199,24.4406115 C141.344199,24.794202 141.217355,25.1005835 140.965574,25.3607097 C140.713554,25.6222665 140.394059,25.7522104 140.007565,25.7522104 C139.655644,25.7522104 139.356177,25.6222665 139.113933,25.3607097 C138.87002,25.1005835 138.747467,24.794202 138.747467,24.4406115 L138.747467,15.0412567 C138.747467,14.6883815 138.87002,14.3817616 139.113933,14.1213969 C139.356177,13.8605554 139.655644,13.7306115 140.007565,13.7306115 C140.394059,13.7306115 140.713554,13.8605554 140.965574,14.1213969 C141.217355,14.3817616 141.344199,14.6883815 141.344199,15.0412567 L141.344199,16.553136 C141.646289,15.4947489 142.074746,14.7389285 142.628379,14.2847209 C143.184157,13.8312286 143.830062,13.6044825 144.570384,13.6044825 C144.99002,13.6044825 145.359346,13.638101 145.678126,13.7050996 C146.015027,13.7892651 146.274199,13.9740477 146.460174,14.2596858 C146.644957,14.5455624 146.694788,14.8562356 146.6111,15.1924208 C146.561268,15.4778205 146.455882,15.6838233 146.296135,15.8099523 C146.13591,15.9358429 145.956135,16.0152398 145.754185,16.0488583 C145.552474,16.0824769 145.339318,16.0910603 145.111619,16.0743703 C144.884157,16.0574418 144.678393,16.0488583 144.494564,16.0488583 C143.939739,16.0488583 143.464788,16.1795175 143.06995,16.4398822" id="Fill-19" fill="#223C44"></path>
                <path d="M149.842363,21.1914656 C150.035968,21.6447195 150.295856,22.030021 150.623219,22.3497546 C150.951536,22.6692496 151.333976,22.9162623 151.770778,23.0929383 C152.208058,23.2693759 152.669895,23.3590252 153.156529,23.3590252 C153.62695,23.3590252 154.084257,23.2779593 154.529881,23.1182118 C154.975982,22.9584642 155.361522,22.7202735 155.689362,22.4010168 C156.017202,22.0815217 156.281858,21.6981276 156.483808,21.2527419 C156.684565,20.8080715 156.786136,20.2916339 156.786136,19.7034292 C156.786136,19.1323913 156.680512,18.6240603 156.470933,18.1786746 C156.261353,17.7337658 155.983345,17.359432 155.639053,17.0573422 C155.294523,16.755014 154.903499,16.5239762 154.467412,16.3639902 C154.03061,16.2044811 153.593808,16.1246073 153.156529,16.1246073 C152.669895,16.1246073 152.208058,16.2087728 151.770778,16.3768654 C151.333976,16.5444811 150.951536,16.7843408 150.623219,17.095014 C150.295856,17.4059257 150.035968,17.7838359 149.842363,18.2292216 C149.649474,18.6743689 149.552672,19.1657714 149.552672,19.7034292 C149.552672,20.241087 149.649474,20.7365428 149.842363,21.1914656 M156.067034,24.7810168 C155.773289,25.026122 155.450217,25.226641 155.097581,25.3863885 C154.744944,25.5456592 154.374425,25.6672581 153.988408,25.7521388 C153.601438,25.8353506 153.223766,25.8780295 152.854439,25.8780295 C152.064523,25.8780295 151.308226,25.7352104 150.586024,25.4500491 C149.863822,25.1644109 149.229123,24.75169 148.682882,24.214986 C148.137595,23.676136 147.700792,23.0309467 147.372475,22.2748878 C147.045589,21.5169215 146.88155,20.6695442 146.88155,19.7289411 C146.88155,18.7880996 147.045589,17.9395302 147.372475,17.1832328 C147.700792,16.4278892 148.137595,15.7843689 148.682882,15.2552945 C149.229123,14.7259818 149.863822,14.3182679 150.586024,14.0331066 C151.308226,13.74723 152.064523,13.6044109 152.854439,13.6044109 C153.207314,13.6044109 153.572826,13.6423212 153.950498,13.7179032 C154.329123,13.7934853 154.69845,13.9067391 155.058955,14.0581417 C155.421129,14.2093058 155.752307,14.4064867 156.054635,14.6503997 C156.358156,14.8938359 156.609698,15.1837658 156.81141,15.5197125 L156.81141,15.0411851 C156.81141,14.68831 156.933247,14.38169 157.176921,14.1215638 C157.420835,13.8604839 157.718871,13.73054 158.071031,13.73054 C158.458001,13.73054 158.77702,13.8604839 159.029278,14.1215638 C159.280344,14.38169 159.40695,14.68831 159.40695,15.0411851 L159.40695,24.44054 C159.40695,24.7941304 159.280344,25.1007504 159.029278,25.3606381 C158.77702,25.622195 158.458001,25.7521388 158.071031,25.7521388 C157.718871,25.7521388 157.420835,25.622195 157.176921,25.3606381 C156.933247,25.1007504 156.81141,24.7941304 156.81141,24.44054 L156.81141,23.9379313 C156.609698,24.2571879 156.361017,24.5387728 156.067034,24.7810168" id="Fill-21" fill="#223C44"></path>
                <path d="M164.251496,25.3607335 C164.000907,25.6222903 163.680459,25.7522342 163.294442,25.7522342 C162.942043,25.7522342 162.642576,25.6222903 162.399856,25.3607335 C162.156419,25.1006073 162.033867,24.7942258 162.033867,24.4406353 L162.033867,15.0412805 C162.033867,14.6884053 162.156419,14.3817854 162.399856,14.1214208 C162.642576,13.8605792 162.942043,13.7306353 163.294442,13.7306353 C163.680459,13.7306353 164.000907,13.8605792 164.251496,14.1214208 C164.503993,14.3817854 164.630122,14.6884053 164.630122,15.0412805 L164.630122,24.4406353 C164.630122,24.7942258 164.503993,25.1006073 164.251496,25.3607335 M162.097289,7.92130856 C162.441342,7.61039691 162.848818,7.45494109 163.320192,7.45494109 C163.806349,7.45494109 164.214302,7.61039691 164.542142,7.92130856 C164.869028,8.2322202 165.033306,8.62276718 165.033306,9.09294951 C165.033306,9.5636087 164.869028,9.95439411 164.542142,10.2650673 C164.214302,10.5762174 163.806349,10.7314348 163.320192,10.7314348 C162.848818,10.7314348 162.441342,10.5762174 162.097289,10.2650673 C161.752759,9.95439411 161.580374,9.5636087 161.580374,9.09294951 C161.580374,8.62276718 161.752759,8.2322202 162.097289,7.92130856" id="Fill-23" fill="#223C44"></path>
                <g id="Group-27" transform="translate(167.138850, 7.104712)">
                    <mask id="mask-2" fill="white">
                        <use xlink:href="#path-1"></use>
                    </mask>
                    <g id="Clip-26"></g>
                    <path d="M2.33808415,18.256021 C2.0851108,18.5175778 1.766331,18.6475217 1.38007574,18.6475217 C1.02720056,18.6475217 0.729640954,18.5175778 0.485489481,18.256021 C0.242053296,17.9958948 0.11997756,17.6895133 0.11997756,17.3359229 L0.11997756,1.53498317 C0.11997756,1.18234642 0.242053296,0.875249649 0.485489481,0.614884993 C0.729640954,0.354281907 1.02720056,0.224338008 1.38007574,0.224338008 C1.766331,0.224338008 2.0851108,0.354281907 2.33808415,0.614884993 C2.59010379,0.875249649 2.71575596,1.18234642 2.71575596,1.53498317 L2.71575596,17.3359229 C2.71575596,17.6895133 2.59010379,17.9958948 2.33808415,18.256021" id="Fill-25" fill="#223C44" mask="url(#mask-2)"></path>
                </g>
                <g id="Group-30" transform="translate(0.000000, 0.190266)">
                    <mask id="mask-4" fill="white">
                        <use xlink:href="#path-3"></use>
                    </mask>
                    <g id="Clip-29"></g>
                    <path d="M37.1459299,18.6206508 C37.1459299,28.8795428 28.8311893,37.1949986 18.5732511,37.1949986 C8.31602805,37.1949986 -0.000143057504,28.8795428 -0.000143057504,18.6206508 C-0.000143057504,8.36318934 8.31602805,0.0482103787 18.5732511,0.0482103787 C28.8311893,0.0482103787 37.1459299,8.36318934 37.1459299,18.6206508" id="Fill-28" fill="#FEDD06" mask="url(#mask-4)"></path>
                </g>
                <path d="M2.28148107,15.4726704 L19.9741178,30.1796971 C20.5174979,30.630805 21.3815652,30.5959944 21.8352959,30.0533296 L27.7907798,22.8861487 C28.2435568,22.3418149 28.1684516,21.5278177 27.574763,21.0333156 C27.4271753,20.9117167 27.2872174,20.8780982 27.0969509,20.8051388 L23.014805,19.5850968 L23.3285778,14.0792903 C23.2935288,13.7166396 23.1709762,13.3632875 22.9153801,13.0664432 C22.6187742,12.8199074 22.2811585,12.6224881 21.8698682,12.6150968 L7.88647405,12.4450968 C7.51833941,12.3873969 7.23031697,12.7328808 7.2150575,13.0542833 C7.18954558,13.2865133 7.29707714,13.4572286 7.4446648,13.5824039 C7.54456662,13.6625161 7.64303787,13.7462048 7.82448247,13.7280842 L21.8465021,13.8492062 C21.8951417,13.8911697 21.8951417,13.8911697 21.9459271,13.9326564 C21.9046788,13.9822496 21.9540337,14.0234979 21.9540337,14.0234979 L21.6979607,19.158547 L3.41354278,13.4059663 C2.84417391,13.1837504 2.22759607,13.4219411 1.94934923,13.8582665 C1.67753997,14.3863871 1.78697896,15.0606648 2.28148107,15.4726704" id="Fill-31" fill="#223C44"></path>
                <path d="M3.20982889,14.6564558 L22.2009509,20.6620098 L26.7127461,22.0730337 C26.8019187,22.0639734 26.8121711,22.1552917 26.8121711,22.1552917 L20.8545414,29.3212805 L20.805425,29.2800323 L3.20982889,14.6564558 Z" id="Fill-33" fill="#3AD8D3"></path>
                <polygon id="Fill-35" fill="#3AD8D3" points="11.2405049 13.7587223 21.9657644 13.8409804 21.6972931 19.1584278 3.92454418 13.5658331"></polygon>
                <path d="M24.4473829,32.6988205 C24.3589257,32.6988205 24.2692763,32.6787924 24.1848724,32.6358752 C23.7590379,32.4215273 23.4877055,32.2806157 23.0487574,32.0495778 C22.7633576,31.8993675 22.6534418,31.5455386 22.8038906,31.2599004 C22.954101,30.9737854 23.3088836,30.8653001 23.5938065,31.0147952 C24.0253633,31.2417798 24.2921655,31.380784 24.7110856,31.5920323 C24.9993464,31.7367588 25.1159383,32.0886802 24.9702581,32.3769411 C24.8670182,32.5810365 24.6614923,32.6988205 24.4473829,32.6988205" id="Fill-37" fill="#223C44"></path>
                <path d="M32.8081164,35.7276339 C29.9903604,35.7276339 27.541216,34.323763 26.5023801,33.72769 L26.4468261,33.695979 C26.1664334,33.5350393 26.0691543,33.1776339 26.2293787,32.8972412 C26.3903184,32.6168485 26.7491543,32.5198079 27.0274011,32.6812244 L27.0843857,32.7131739 C28.3485372,33.438237 31.3093506,35.1353759 34.4301501,34.3645344 C34.7439229,34.2870449 35.0617489,34.4780266 35.1380463,34.7922763 C35.2160126,35.1053338 35.0250309,35.4229215 34.7112581,35.5001725 C34.0665456,35.6596816 33.4285091,35.7276339 32.8081164,35.7276339" id="Fill-39" fill="#223C44"></path>
            </g>
        </g>
    </g>
</svg>